# xmcd CD database file
#
# Track frame offsets:
#	150
#	15047
#	39504
#	52929
#	64212
#	86794
#	103194
#	120654
#	142851
#	147274
#	168382
#	184458
#
# Disc length: 2981 seconds
#
# Revision: 0
# Processed by: cddbd v1.5.1PL0 Copyright (c) Steve Scherf et al.
# Submitted via: CDex 1.51
#
DISCID=9f0ba30c
DTITLE=Zaragraf - Absoloutli Romanticno
DYEAR=1900
DGENRE=Salsa
TTITLE0=Ciri biri daja
TTITLE1=Deba, baba
TTITLE2=Zai zai
TTITLE3=Elio
TTITLE4=Polako
TTITLE5=Svirale trube
TTITLE6=Sarah
TTITLE7=Nek se zna
TTITLE8=Vas chercher des marguerites
TTITLE9=Meda gana
TTITLE10=Janka
TTITLE11=Erdelezi
EXTD=
EXTT0=
EXTT1=
EXTT2=
EXTT3=
EXTT4=
EXTT5=
EXTT6=
EXTT7=
EXTT8=
EXTT9=
EXTT10=
EXTT11=
PLAYORDER=
